<svg width="48" height="48" viewBox="0 0 48 48" fill="none" xmlns="http://www.w3.org/2000/svg">
<circle cx="24" cy="24" r="23.5" stroke="white"/>
<path d="M14.4399 30H16.6799V25.28H20.2479V23.504H16.6799V20.64H21.3359V18.832H14.4399V30ZM25.1643 22.432V18.16H22.9243V30H25.1643V28.736C25.7083 29.504 26.7003 30.144 28.0923 30.144C30.3643 30.144 32.1403 28.304 32.1403 25.536C32.1403 22.768 30.3643 20.992 28.0923 20.992C26.7483 20.992 25.7083 21.616 25.1643 22.432ZM29.8523 25.536C29.8523 27.216 28.7163 28.176 27.5003 28.176C26.3003 28.176 25.1643 27.248 25.1643 25.568C25.1643 23.888 26.3003 22.96 27.5003 22.96C28.7163 22.96 29.8523 23.856 29.8523 25.536Z" fill="white"/>
</svg>
