<svg width="48" height="48" viewBox="0 0 48 48" fill="none" xmlns="http://www.w3.org/2000/svg">
<circle cx="24" cy="24" r="23.5" stroke="white"/>
<path d="M16.4556 30H18.6956V18.832H16.4556V30ZM20.3327 25.536C20.3327 28.304 22.1247 30.144 24.3807 30.144C25.7727 30.144 26.7807 29.456 27.3087 28.688V30.064C27.3087 31.712 26.3487 32.416 25.1167 32.416C23.9967 32.416 23.1647 31.888 22.9407 31.088H20.7167C20.9407 33.12 22.6847 34.368 25.1807 34.368C28.0927 34.368 29.5647 32.464 29.5647 30.064V21.136H27.3087V22.4C26.7807 21.632 25.7727 20.992 24.3807 20.992C22.1247 20.992 20.3327 22.768 20.3327 25.536ZM27.3087 25.568C27.3087 27.248 26.1887 28.176 24.9567 28.176C23.7567 28.176 22.6207 27.216 22.6207 25.536C22.6207 23.856 23.7567 22.96 24.9567 22.96C26.1887 22.96 27.3087 23.888 27.3087 25.568Z" fill="white"/>
</svg>
